HIERARCHY
ROOT Hips
{
	OFFSET 0.00000 0.00000 0.00000
	CHANNELS 6 Xposition Yposition Zposition Zrotation Yrotation Xrotation 
	JOINT LHipJoint
	{
		OFFSET 0 0 0
		CHANNELS 3 Zrotation Yrotation Xrotation
		JOINT LeftHip
		{
			OFFSET 1.41261 -1.82971 0.84908
			CHANNELS 3 Zrotation Yrotation Xrotation
			JOINT LeftKnee
			{
				OFFSET 2.52554 -6.93888 0.00000
				CHANNELS 3 Zrotation Yrotation Xrotation
				JOINT LeftAnkle
				{
					OFFSET 2.56654 -7.05152 0.00000
					CHANNELS 3 Zrotation Yrotation Xrotation
					JOINT LeftToe
					{
						OFFSET 0.21698 -0.59616 1.85369
						CHANNELS 3 Zrotation Yrotation Xrotation
						End Site
						{
							OFFSET 0.00000 -0.00000 0.97832
						}
					}
				}
			}
		}
	}
	JOINT RHipJoint
	{
		OFFSET 0 0 0
		CHANNELS 3 Zrotation Yrotation Xrotation
		JOINT RightHip
		{
			OFFSET -1.12808 -1.82971 0.84907
			CHANNELS 3 Zrotation Yrotation Xrotation
			JOINT RightKnee
			{
				OFFSET -2.53425 -6.96280 0.00000
				CHANNELS 3 Zrotation Yrotation Xrotation
				JOINT RightAnkle
				{
					OFFSET -2.58413 -7.09983 0.00000
					CHANNELS 3 Zrotation Yrotation Xrotation
					JOINT RightToe
					{
						OFFSET -0.26437 -0.72636 1.92241
						CHANNELS 3 Zrotation Yrotation Xrotation
						End Site
						{
							OFFSET -0.00000 -0.00000 1.02667
						}
					}
				}
			}
		}
	}
	JOINT lowerback
	{
		OFFSET 0 0 0
		CHANNELS 3 Zrotation Yrotation Xrotation
		JOINT Chest
		{
			OFFSET -0.02096 2.02288 -0.14752
			CHANNELS 3 Zrotation Yrotation Xrotation
			JOINT Chest2
			{
				OFFSET 0.03477 2.03136 -0.02358
				CHANNELS 3 Zrotation Yrotation Xrotation
				JOINT lowerneck
				{
					OFFSET 0 0 0
					CHANNELS 3 Zrotation Yrotation Xrotation
					JOINT Neck
					{
						OFFSET 0.00174 1.74359 0.19336
						CHANNELS 3 Zrotation Yrotation Xrotation
						JOINT Head
						{
							OFFSET -0.03054 1.76140 -0.17751
							CHANNELS 3 Zrotation Yrotation Xrotation
							End Site
							{
								OFFSET -0.00863 1.77239 -0.08120
							}
						}
					}
				}
				JOINT LeftCollar
				{
					OFFSET 0 0 0
					CHANNELS 3 Zrotation Yrotation Xrotation
					JOINT LeftShoulder
					{
						OFFSET 3.68685 1.32687 -0.67367
CHANNELS 3 Zrotation Xrotation Yrotation
						JOINT LeftElbow
						{
OFFSET 0 -4.764680 -0.000000
CHANNELS 3 Zrotation Xrotation Yrotation
							JOINT LeftWrist
							{
OFFSET 0 -3.527120 -0.000000
CHANNELS 3 Zrotation Xrotation Yrotation
								JOINT lhand
								{
									OFFSET 0 0 0
CHANNELS 3 Zrotation Xrotation Yrotation
									JOINT LFingers
									{
OFFSET 0 -0.859560 -0.000000
CHANNELS 3 Zrotation Xrotation Yrotation
										End Site
										{
OFFSET 0 -0.693000 -0.000000
										}
									}
								}
								JOINT LThumb
								{
OFFSET 0 0.000000 0.000000
CHANNELS 3 Zrotation Xrotation Yrotation
									End Site
									{
OFFSET 0 -0.703580 0.703580
									}
								}
							}
						}
					}
				}
				JOINT RightCollar
				{
					OFFSET 0 0 0
					CHANNELS 3 Zrotation Yrotation Xrotation
					JOINT RightShoulder
					{
						OFFSET -3.31304 1.28268 -0.97357
CHANNELS 3 Zrotation Xrotation Yrotation
						JOINT RightElbow
						{
OFFSET 0 -4.905770 -0.000000
CHANNELS 3 Zrotation Xrotation Yrotation
							JOINT RightWrist
							{
OFFSET 0 -3.426920 0.000000
CHANNELS 3 Zrotation Xrotation Yrotation
								JOINT rhand
								{
									OFFSET 0 0 0
CHANNELS 3 Zrotation Xrotation Yrotation
									JOINT RFingers
									{
OFFSET 0 -0.740960 -0.000000
CHANNELS 3 Zrotation Xrotation Yrotation
										End Site
										{
OFFSET 0 -0.597380 -0.000000
										}
									}
								}
								JOINT RThumb
								{
OFFSET 0 0.000000 0.000000
CHANNELS 3 Zrotation Xrotation Yrotation
									End Site
									{
OFFSET 0 -0.606500 0.606500
									}
								}
							}
						}
					}
				}
			}
		}
	}
}
MOTION
Frames: 6
Frame Time: 0.008333333333333333
-0.583329 20.511570 -18.490907 1.530336 0.756050 9.934286 0.000000 0.000000 0.000000 -18.269489 -0.534772 -4.025031 5.186343 13.590074 41.620533 -0.350607 -16.324836 19.295705 3.489334 -11.443353 -33.795791 0.000000 0.000000 0.000000 15.217672 1.682046 -9.899978 -7.291478 -15.572454 49.968203 0.127969 -10.183121 4.777310 -2.779955 -10.329947 30.052057 -1.641193 0.888686 12.039028 1.729766 1.064384 0.929550 2.566665 0.585546 -5.842949 -2.069764 0.261232 -12.369845 -0.484154 0.772601 9.538985 0.244181 0.269536 4.881256 0.000000 0.000000 0.000000 20.151833 9.056268 -30.804744 129.661585 -53.081153 93.541983 16.342892 -12.587418 23.212142 0.000000 0.000000 0.000000 -7.125000 0.000000 0.000000 -7.924366 6.091735 -7.107198 0.000000 0.000000 0.000000 -23.072870 -14.678408 34.013347 -74.900525 -58.979078 -46.978555 -12.054068 2.837650 32.340560 0.000000 0.000000 0.000000 7.125000 0.000000 0.000000 23.749296 61.312085 -9.792134
-0.588588 20.567809 -18.331420 1.491509 0.763851 9.863059 0.000000 0.000000 0.000000 -18.230866 -0.448616 -4.729793 5.234928 13.643421 41.827699 -0.434222 -16.455809 18.506715 3.598103 -11.604359 -34.347874 0.000000 0.000000 0.000000 15.236516 1.705039 -10.583734 -7.282333 -15.565063 49.934109 0.147806 -10.250462 4.436630 -2.770664 -10.314142 30.000170 -1.602979 0.899759 12.307283 1.771398 1.083053 1.059851 2.584194 0.592937 -5.856446 -2.031492 0.246595 -12.305834 -0.546763 0.751303 9.466356 0.216543 0.257207 4.848769 0.000000 0.000000 0.000000 18.853999 9.393004 -30.655132 128.136456 -53.707560 92.327150 16.198276 -12.476955 22.924926 0.000000 0.000000 0.000000 -7.125000 0.000000 0.000000 -7.995797 6.403404 -7.125195 0.000000 0.000000 0.000000 -22.012411 -14.817824 33.712341 -71.350976 -58.607634 -43.927566 -11.430203 2.520050 33.087480 0.000000 0.000000 0.000000 7.125000 0.000000 0.000000 25.057589 61.839656 -10.643002
-0.595045 20.609834 -18.173684 1.613905 0.804665 9.870877 0.000000 0.000000 0.000000 -18.371229 -0.462377 -5.486484 5.230778 13.638988 41.810218 -0.438077 -16.119401 17.845819 3.662915 -11.697056 -34.669665 0.000000 0.000000 0.000000 15.076374 1.735081 -11.359276 -7.255035 -15.542812 49.832143 0.163128 -10.282647 4.127143 -2.753011 -10.283868 29.901124 -1.734259 0.891594 12.532641 1.773450 1.050530 1.158381 2.665516 0.579341 -5.878030 -1.975711 0.255803 -12.252766 -0.609371 0.759586 9.418838 0.188491 0.259761 4.825704 0.000000 0.000000 0.000000 17.633828 9.675623 -30.430024 126.260452 -54.341730 90.798120 16.308119 -12.807493 22.913387 0.000000 0.000000 0.000000 -7.125000 0.000000 0.000000 -7.926349 6.400001 -7.062649 0.000000 0.000000 0.000000 -21.020031 -14.993317 33.434420 -67.824143 -57.925909 -40.945139 -11.996617 2.822620 32.752355 0.000000 0.000000 0.000000 7.125000 0.000000 0.000000 24.159841 61.673288 -10.161974
-0.601823 20.648048 -18.016418 1.779527 0.854331 9.899888 0.000000 0.000000 0.000000 -18.559580 -0.502928 -6.257097 5.212489 13.619063 41.732505 -0.420548 -15.657682 17.219266 3.715941 -11.771438 -34.929711 0.000000 0.000000 0.000000 14.868244 1.767013 -12.159426 -7.222869 -15.516576 49.711980 0.177239 -10.305406 3.826021 -2.733115 -10.249715 29.789434 -1.910983 0.878272 12.746497 1.764890 1.004282 1.248394 2.763943 0.560117 -5.901782 -1.915235 0.271404 -12.202633 -0.671980 0.775801 9.378054 0.160327 0.266305 4.805166 0.000000 0.000000 0.000000 16.434479 9.943733 -30.184673 124.290372 -54.977982 89.184848 16.486187 -13.256270 22.975762 0.000000 0.000000 0.000000 -7.125000 0.000000 0.000000 -7.819129 6.312121 -6.978509 0.000000 0.000000 0.000000 -20.045903 -15.178484 33.162688 -64.303400 -57.160992 -37.981095 -12.882164 3.291468 32.127117 0.000000 0.000000 0.000000 7.125000 0.000000 0.000000 22.670617 61.320863 -9.323844
-0.608601 20.686262 -17.859152 1.945148 0.903997 9.928899 0.000000 0.000000 0.000000 -18.747931 -0.543479 -7.027711 5.194200 13.599138 41.654792 -0.403019 -15.195962 16.592713 3.768966 -11.845820 -35.189757 0.000000 0.000000 0.000000 14.660114 1.798946 -12.959576 -7.190703 -15.490341 49.591818 0.191350 -10.328164 3.524898 -2.713220 -10.215563 29.677744 -2.087707 0.864950 12.960354 1.756330 0.958034 1.338406 2.862369 0.540893 -5.925534 -1.854759 0.287005 -12.152499 -0.734588 0.792015 9.337269 0.132164 0.272849 4.784627 0.000000 0.000000 0.000000 15.235130 10.211842 -29.939322 122.320293 -55.614234 87.571575 16.664254 -13.705047 23.038137 0.000000 0.000000 0.000000 -7.125000 0.000000 0.000000 -7.711908 6.224241 -6.894369 0.000000 0.000000 0.000000 -19.071775 -15.363651 32.890956 -60.782657 -56.396076 -35.017051 -13.767710 3.760316 31.501879 0.000000 0.000000 0.000000 7.125000 0.000000 0.000000 21.181393 60.968438 -8.485714
-0.615315 20.719251 -17.702270 1.976242 0.963183 9.894444 0.000000 0.000000 0.000000 -18.783730 -0.540277 -7.727123 5.162759 13.564469 41.520441 -0.389966 -14.767429 15.955861 3.815891 -11.911132 -35.418732 0.000000 0.000000 0.000000 14.609110 1.849961 -13.664058 -7.142520 -15.450429 49.410753 0.205140 -10.342878 3.203069 -2.681849 -10.160725 29.499297 -2.125329 0.843326 13.251342 1.779428 0.922300 1.442480 2.913528 0.523956 -5.975709 -1.838795 0.306602 -12.070291 -0.722395 0.811157 9.255445 0.134397 0.284543 4.745551 0.000000 0.000000 0.000000 14.104418 10.458657 -29.680776 120.149079 -56.230464 85.774701 16.937521 -14.339040 23.194951 0.000000 0.000000 0.000000 -7.125000 0.000000 0.000000 -7.553103 6.025371 -6.777107 0.000000 0.000000 0.000000 -18.150984 -15.545100 32.655904 -57.479664 -55.534486 -32.268683 -14.537512 3.888490 31.021235 0.000000 0.000000 0.000000 7.125000 0.000000 0.000000 19.948821 60.715475 -7.824198
